# xmcd
#
# Track frame offsets:
#	150
#	12620
#	23887
#	40047
#	57565
#	76757
#	91185
#	102420
#	118680
#	126870
#	144270
#	160072
#	175565
#	193442
#	207855
#	226407
#	241432
#
# Disc length: 3408 seconds
#
# Revision: 6
# Processed by: cddbd v1.5.2PL0 Copyright (c) Steve Scherf et al.
# Submitted via: audiograbber 1.83.01
#
DISCID=e00d4e11
DTITLE=Tom Waits - Frank's Wild Years
DYEAR=1987
DGENRE=Blues
TTITLE0=Hang On St. Christopher
TTITLE1=Straight To The Top (Rhumba)
TTITLE2=Blow Wind Blow
TTITLE3=Temptation
TTITLE4=Innocent When You Dream (Barroom)
TTITLE5=I'll Be Gone
TTITLE6=Yesterday Is Here
TTITLE7=Please Wake Me Up
TTITLE8=Frank's Theme
TTITLE9=More Than Rain
TTITLE10=Way Down In The Hole
TTITLE11=Straight To The Top (Vegas)
TTITLE12=I'll Take New York
TTITLE13=Telephone Call From Istanbul
TTITLE14=Cold Call Ground
TTITLE15=Train Song
TTITLE16=Innocent When You Dream (78)
EXTD=
EXTT0=track 07 corrected
EXTT1=
EXTT2=
EXTT3=
EXTT4=
EXTT5=
EXTT6=
EXTT7=
EXTT8=
EXTT9=
EXTT10=
EXTT11=
EXTT12=
EXTT13=
EXTT14=
EXTT15=
EXTT16=
PLAYORDER=
